<svg width="1121" height="1121" viewBox="0 0 1121 1121" fill="none" xmlns="http://www.w3.org/2000/svg">
<rect width="1121" height="1121" rx="125" fill="black"/>
<path d="M379.379 908C395.827 908 409.16 894.667 409.16 878.219V654.812C409.16 625.857 446.3 613.932 463.156 637.475L647.889 895.483C653.481 903.294 662.497 907.927 672.103 907.927H849.54C873.773 907.927 887.86 880.528 873.761 860.818L409.736 212.165C409.673 212.076 409.547 212.061 409.465 212.133L409.366 212.218C409.286 212.288 409.16 212.231 409.16 212.124V212.124C409.16 212.056 409.105 212 409.036 212H241.781C225.334 212 212 225.334 212 241.781V878.219C212 894.667 225.334 908 241.781 908H379.379Z" fill="white"/>
<path d="M647.65 259.245C633.395 239.554 647.463 212 671.774 212H878.219C894.666 212 908 225.334 908 241.781V526.948C908 555.824 871.028 567.802 854.095 544.412L647.65 259.245Z" fill="white"/>
</svg>
